<svg width="30" height="30" viewBox="0 0 30 30" fill="none" xmlns="http://www.w3.org/2000/svg">
<g clip-path="url(#clip0_11_14)">
<path d="M22.0166 19.395C23.8321 16.9175 24.6453 13.8459 24.2934 10.7947C23.9415 7.74339 22.4505 4.93751 20.1186 2.93837C17.7868 0.939228 14.7861 -0.105742 11.7169 0.0125203C8.6477 0.130782 5.73631 1.40356 3.56522 3.5762C1.39412 5.74885 0.123435 8.66115 0.00736948 11.7304C-0.108696 14.7997 0.938421 17.7997 2.93923 20.1301C4.94004 22.4605 7.74699 23.9495 10.7985 24.2992C13.85 24.6489 16.9211 23.8336 19.3972 22.0163H19.3953C19.4503 22.0912 19.5116 22.1631 19.5791 22.2319L26.7978 29.4506C27.1494 29.8025 27.6264 30.0002 28.1237 30.0004C28.6211 30.0006 29.0982 29.8031 29.45 29.4516C29.8019 29.1 29.9996 28.623 29.9998 28.1257C30 27.6283 29.8025 27.1512 29.451 26.7994L22.2322 19.5806C22.1652 19.5127 22.0931 19.4519 22.0166 19.395ZM22.5003 12.1875C22.5003 13.5418 22.2336 14.8828 21.7153 16.1339C21.1971 17.3851 20.4375 18.5219 19.4799 19.4795C18.5223 20.4371 17.3854 21.1968 16.1343 21.715C14.8831 22.2333 13.5421 22.5 12.1878 22.5C10.8336 22.5 9.49259 22.2333 8.24142 21.715C6.99025 21.1968 5.85341 20.4371 4.8958 19.4795C3.9382 18.5219 3.17858 17.3851 2.66033 16.1339C2.14208 14.8828 1.87534 13.5418 1.87534 12.1875C1.87534 9.45246 2.96183 6.82943 4.8958 4.89546C6.82977 2.96149 9.4528 1.875 12.1878 1.875C14.9229 1.875 17.5459 2.96149 19.4799 4.89546C21.4138 6.82943 22.5003 9.45246 22.5003 12.1875Z" fill="black"/>
</g>
<defs>
<clipPath id="clip0_11_14">
<rect width="30" height="30" fill="white"/>
</clipPath>
</defs>
</svg>
