<svg width="218" height="218" viewBox="0 0 218 218" fill="none" xmlns="http://www.w3.org/2000/svg">
<path d="M109 109C123.421 109 137.252 103.271 147.449 93.0739C157.646 82.8766 163.375 69.0462 163.375 54.625C163.375 40.2039 157.646 26.3734 147.449 16.1761C137.252 5.97878 123.421 0.25 109 0.25C94.5788 0.25 80.7484 5.97878 70.5511 16.1761C60.3538 26.3734 54.625 40.2039 54.625 54.625C54.625 69.0462 60.3538 82.8766 70.5511 93.0739C80.7484 103.271 94.5788 109 109 109ZM145.25 54.625C145.25 64.2391 141.431 73.4594 134.633 80.2576C127.834 87.0558 118.614 90.875 109 90.875C99.3859 90.875 90.1656 87.0558 83.3674 80.2576C76.5692 73.4594 72.75 64.2391 72.75 54.625C72.75 45.0109 76.5692 35.7906 83.3674 28.9924C90.1656 22.1942 99.3859 18.375 109 18.375C118.614 18.375 127.834 22.1942 134.633 28.9924C141.431 35.7906 145.25 45.0109 145.25 54.625ZM217.75 199.625C217.75 217.75 199.625 217.75 199.625 217.75H18.375C18.375 217.75 0.25 217.75 0.25 199.625C0.25 181.5 18.375 127.125 109 127.125C199.625 127.125 217.75 181.5 217.75 199.625ZM199.625 199.553C199.607 195.094 196.834 181.681 184.545 169.393C172.728 157.575 150.488 145.25 109 145.25C67.5119 145.25 45.2725 157.575 33.455 169.393C21.1663 181.681 18.4112 195.094 18.375 199.553H199.625Z" fill="#066B6A"/>
</svg>
